<?xml version="1.0" standalone="no"?>
<!DOCTYPE svg PUBLIC "-//W3C//DTD SVG 20010904//EN"
 "http://www.w3.org/TR/2001/REC-SVG-20010904/DTD/svg10.dtd">
<svg version="1.0" xmlns="http://www.w3.org/2000/svg"
 width="300.000000pt" height="309.000000pt" viewBox="0 0 300.000000 309.000000"
 preserveAspectRatio="xMidYMid meet">
<metadata>
Created by potrace 1.10, written by Peter Selinger 2001-2011
</metadata>
<g transform="translate(0.000000,309.000000) scale(0.100000,-0.100000)"
fill="#000000" stroke="none">
<path d="M534 2690 c-12 -4 -31 -21 -43 -36 l-21 -27 0 -1048 0 -1049 29 -32
29 -33 399 -3 c257 -2 411 1 434 7 45 14 68 39 76 84 5 32 1 41 -30 72 l-35
35 -356 0 -356 0 0 920 0 920 738 0 737 0 -3 -482 c-2 -266 0 -498 3 -517 15
-81 108 -110 166 -52 l29 29 0 576 0 576 -29 32 -29 33 -859 2 c-472 1 -868
-2 -879 -7z m1743 -42 l23 -21 0 -568 c0 -536 -1 -568 -18 -590 -23 -27 -75
-30 -100 -5 -18 17 -19 78 -21 843 -1 160 -4 194 -17 207 -14 14 -95 16 -743
16 -590 0 -731 -3 -745 -13 -18 -13 -19 -55 -18 -933 l1 -919 22 -18 c20 -16
44 -18 213 -17 497 2 493 2 516 -22 25 -28 23 -74 -6 -97 -18 -14 -66 -17
-426 -19 -397 -3 -405 -2 -431 18 l-26 21 -1 830 c0 456 -1 833 -1 837 -1 4
-1 102 0 218 1 195 2 212 21 232 l20 21 857 0 857 1 23 -22z"/>
<path d="M973 2165 c-62 -26 -74 -106 -23 -156 l29 -30 441 3 442 3 24 28 c26
30 32 83 13 119 -24 45 -52 48 -486 48 -324 -1 -415 -4 -440 -15z m887 -35
c11 -11 20 -33 20 -50 0 -17 -9 -39 -20 -50 -22 -22 -59 -23 -640 -20 -263 1
-273 4 -268 73 2 33 8 44 28 54 19 10 127 13 443 13 404 0 418 -1 437 -20z"/>
<path d="M973 1675 c-61 -26 -74 -106 -24 -156 l29 -29 437 0 437 0 29 29 c52
53 33 135 -38 162 -14 5 -201 9 -431 9 -323 -1 -414 -4 -439 -15z m878 -31
c24 -12 29 -21 29 -53 0 -73 15 -71 -458 -72 -365 -1 -425 1 -446 14 -40 26
-39 82 2 114 12 10 116 13 430 12 346 0 420 -2 443 -15z"/>
<path d="M2508 1324 c-10 -3 -131 -131 -269 -285 l-252 -281 -41 39 c-22 21
-82 77 -132 126 -84 80 -95 87 -131 87 -75 0 -124 -72 -91 -133 16 -29 323
-329 355 -345 37 -20 80 -14 112 16 50 47 558 617 570 640 37 70 -41 158 -121
136z m88 -52 c24 -31 16 -69 -23 -114 -21 -24 -52 -58 -69 -78 -106 -119 -239
-268 -314 -350 -48 -52 -104 -114 -124 -137 -31 -35 -45 -43 -73 -43 -38 0
-42 4 -280 236 -87 85 -103 105 -103 131 0 39 41 75 76 69 30 -6 46 -18 167
-136 106 -102 127 -117 150 -104 15 9 101 103 351 382 65 73 130 142 145 153
30 24 76 20 97 -9z"/>
<path d="M949 1181 c-58 -59 -29 -151 53 -166 20 -4 92 -5 162 -3 l128 3 29
33 c32 36 36 69 15 111 -23 44 -53 51 -212 51 l-146 0 -29 -29z m357 -26 c18
-28 12 -76 -13 -96 -10 -9 -60 -14 -158 -16 -160 -3 -180 3 -190 64 -4 26 0
35 21 52 24 19 40 21 175 21 147 0 149 0 165 -25z"/>
</g>
</svg>
