<?xml version="1.0" encoding="UTF-8" standalone="no"?>
<svg
   version="1.0"
   width="306pt"
   height="242pt"
   viewBox="0 0 306 242"
   preserveAspectRatio="xMidYMid meet"
   id="svg10"
   sodipodi:docname="2b36598a245dbc5bc708548b2204043c.svg"
   xmlns:inkscape="http://www.inkscape.org/namespaces/inkscape"
   xmlns:sodipodi="http://sodipodi.sourceforge.net/DTD/sodipodi-0.dtd"
   xmlns="http://www.w3.org/2000/svg"
   xmlns:svg="http://www.w3.org/2000/svg">
  <defs
     id="defs14" />
  <sodipodi:namedview
     id="namedview12"
     pagecolor="#ffffff"
     bordercolor="#666666"
     borderopacity="1.0"
     inkscape:pageshadow="2"
     inkscape:pageopacity="0.0"
     inkscape:pagecheckerboard="0"
     inkscape:document-units="pt" />
  <metadata
     id="metadata2">
Created by potrace 1.16, written by Peter Selinger 2001-2019
</metadata>
  <g
     transform="matrix(0.1,0,0,-0.1,-111,352)"
     fill="#000000"
     stroke="none"
     id="g8">
    <path
       d="m 1750,3510 c 0,-5 -18,-10 -40,-10 -22,0 -40,-4 -40,-10 0,-5 -9,-10 -20,-10 -11,0 -20,-4 -20,-10 0,-5 -13,-10 -30,-10 -16,0 -30,-4 -30,-10 0,-5 -8,-10 -18,-10 -10,0 -24,-9 -32,-20 -8,-11 -21,-20 -30,-20 -9,0 -22,-9 -30,-20 -8,-11 -20,-20 -27,-20 -17,0 -163,-146 -163,-163 0,-7 -9,-19 -20,-27 -11,-8 -20,-21 -20,-30 0,-9 -9,-22 -20,-30 -11,-8 -20,-22 -20,-32 0,-10 -4,-18 -10,-18 -5,0 -10,-9 -10,-20 0,-11 -4,-20 -10,-20 -5,0 -10,-13 -10,-30 0,-16 -4,-30 -10,-30 -5,0 -10,-18 -10,-40 0,-22 -4,-40 -10,-40 -6,0 -10,-67 -10,-180 0,-113 4,-180 10,-180 6,0 10,-13 10,-30 0,-16 5,-30 10,-30 6,0 10,-13 10,-30 0,-16 5,-30 10,-30 6,0 10,-9 10,-20 0,-11 5,-20 10,-20 6,0 10,-9 10,-20 0,-11 5,-20 10,-20 6,0 10,-9 10,-20 0,-11 5,-20 10,-20 6,0 10,-7 10,-16 0,-8 18,-33 40,-54 22,-21 40,-43 40,-50 0,-14 46,-60 60,-60 7,0 29,-18 50,-40 21,-22 45,-40 52,-40 7,0 20,-9 28,-20 8,-11 22,-20 32,-20 10,0 18,-4 18,-10 0,-5 9,-10 20,-10 11,0 20,-4 20,-10 0,-5 14,-10 30,-10 17,0 30,-4 30,-10 0,-5 14,-10 30,-10 17,0 30,-4 30,-10 0,-6 27,-10 60,-10 33,0 60,-4 60,-10 0,-6 107,-10 300,-10 h 300 v 200 200 h -270 c -173,0 -270,4 -270,10 0,6 -18,10 -40,10 -22,0 -40,5 -40,10 0,6 -13,10 -30,10 -16,0 -30,5 -30,10 0,6 -7,10 -15,10 -20,0 -165,145 -165,165 0,8 -4,15 -10,15 -5,0 -10,14 -10,30 0,17 -4,30 -10,30 -6,0 -10,50 -10,130 0,80 4,130 10,130 6,0 10,9 10,20 0,11 5,20 10,20 6,0 10,8 10,18 0,10 9,24 20,32 11,8 20,20 20,28 0,17 65,82 82,82 8,0 20,9 28,20 8,11 22,20 32,20 10,0 18,5 18,10 0,6 14,10 30,10 17,0 30,5 30,10 0,6 60,10 160,10 100,0 160,4 160,10 0,6 17,10 38,10 26,0 42,6 52,20 8,11 20,20 27,20 19,0 123,106 123,125 0,8 5,15 10,15 6,0 10,14 10,30 0,17 5,30 10,30 6,0 10,30 10,70 v 70 h -340 c -220,0 -340,-4 -340,-10 z"
       id="path4" />
    <path
       d="m 3150,3510 c 0,-5 -13,-10 -30,-10 -16,0 -30,-4 -30,-10 0,-5 -13,-10 -30,-10 -16,0 -30,-4 -30,-10 0,-5 -9,-10 -20,-10 -11,0 -20,-4 -20,-10 0,-5 -9,-10 -20,-10 -11,0 -20,-4 -20,-10 0,-5 -9,-10 -20,-10 -11,0 -20,-4 -20,-10 0,-5 -7,-10 -16,-10 -9,0 -29,-13 -44,-30 -15,-16 -33,-30 -39,-30 -15,0 -121,-106 -121,-121 0,-6 -13,-24 -30,-39 -16,-15 -30,-35 -30,-44 0,-9 -4,-16 -10,-16 -5,0 -10,-9 -10,-20 0,-11 -4,-20 -10,-20 -5,0 -10,-9 -10,-20 0,-11 -4,-20 -10,-20 -5,0 -10,-9 -10,-20 0,-11 -4,-20 -10,-20 -5,0 -10,-13 -10,-30 0,-16 -4,-30 -10,-30 -5,0 -10,-18 -10,-40 0,-22 -4,-40 -10,-40 -7,0 -10,-300 -10,-880 v -880 h 70 c 40,0 70,4 70,10 0,6 14,10 30,10 17,0 30,5 30,10 0,6 8,10 18,10 10,0 24,9 32,20 8,11 20,20 28,20 17,0 62,45 62,62 0,8 9,20 20,28 11,8 20,22 20,32 0,10 5,18 10,18 6,0 10,14 10,30 0,17 5,30 10,30 7,0 10,247 10,720 0,473 3,720 10,720 6,0 10,14 10,30 0,17 5,30 10,30 6,0 10,8 10,18 0,10 9,24 20,32 11,8 20,20 20,28 0,17 65,82 82,82 8,0 20,9 28,20 8,11 22,20 32,20 10,0 18,5 18,10 0,6 14,10 30,10 17,0 30,5 30,10 0,6 40,10 100,10 60,0 100,-4 100,-10 0,-5 14,-10 30,-10 17,0 30,-4 30,-10 0,-5 9,-10 20,-10 11,0 20,-4 20,-10 0,-5 7,-10 15,-10 19,0 125,-104 125,-123 0,-7 9,-19 20,-27 12,-8 20,-26 20,-42 0,-15 5,-28 10,-28 6,0 10,-18 10,-40 0,-22 5,-40 10,-40 6,0 10,-22 10,-50 0,-27 -4,-50 -10,-50 -5,0 -10,-22 -10,-50 0,-27 -4,-50 -10,-50 -5,0 -10,-9 -10,-20 0,-11 -4,-20 -10,-20 -5,0 -10,-8 -10,-18 0,-10 -9,-24 -20,-32 -11,-8 -20,-20 -20,-28 0,-17 -45,-62 -62,-62 -8,0 -20,-9 -28,-20 -8,-11 -22,-20 -32,-20 -10,0 -18,-4 -18,-10 0,-5 -9,-10 -20,-10 -11,0 -20,-4 -20,-10 0,-5 -22,-10 -50,-10 -27,0 -50,-4 -50,-10 0,-6 -70,-10 -190,-10 h -190 v -186 c 0,-147 3,-188 14,-200 12,-11 57,-14 230,-14 137,0 216,4 216,10 0,6 23,10 50,10 28,0 50,5 50,10 0,6 14,10 30,10 17,0 30,5 30,10 0,6 14,10 30,10 17,0 30,5 30,10 0,6 9,10 20,10 11,0 20,5 20,10 0,6 9,10 20,10 11,0 20,5 20,10 0,6 7,10 16,10 9,0 29,14 44,30 15,17 33,30 39,30 16,0 161,147 161,163 0,7 9,19 20,27 11,8 20,21 20,30 0,9 9,22 20,30 11,8 20,22 20,32 0,10 5,18 10,18 6,0 10,14 10,30 0,17 5,30 10,30 6,0 10,14 10,30 0,17 5,30 10,30 6,0 10,23 10,50 0,28 5,50 10,50 6,0 10,50 10,130 0,80 -4,130 -10,130 -5,0 -10,18 -10,40 0,22 -4,40 -10,40 -5,0 -10,14 -10,30 0,17 -4,30 -10,30 -5,0 -10,14 -10,30 0,17 -4,30 -10,30 -5,0 -10,9 -10,20 0,11 -4,20 -10,20 -5,0 -10,8 -10,18 0,10 -9,24 -20,32 -11,8 -20,20 -20,27 0,7 -47,60 -105,118 -58,58 -111,105 -118,105 -7,0 -19,9 -27,20 -8,11 -22,20 -32,20 -10,0 -18,5 -18,10 0,6 -9,10 -20,10 -11,0 -20,5 -20,10 0,6 -9,10 -20,10 -11,0 -20,5 -20,10 0,6 -13,10 -30,10 -16,0 -30,5 -30,10 0,6 -18,10 -40,10 -22,0 -40,5 -40,10 0,6 -67,10 -180,10 -113,0 -180,-4 -180,-10 z"
       id="path6" />
  </g>
</svg>
